<?xml version="1.0" standalone="no"?>
<!DOCTYPE svg PUBLIC "-//W3C//DTD SVG 20010904//EN"
 "http://www.w3.org/TR/2001/REC-SVG-20010904/DTD/svg10.dtd">
<svg version="1.0" xmlns="http://www.w3.org/2000/svg"
 width="512.000000pt" height="512.000000pt" viewBox="0 0 512.000000 512.000000"
 preserveAspectRatio="xMidYMid meet">

<g transform="translate(0.000000,512.000000) scale(0.100000,-0.100000)"
fill="#000000" stroke="none">
<path d="M3562 2377 c-309 -309 -562 -565 -562 -569 0 -4 24 -18 54 -31 185
-85 368 -261 467 -452 24 -47 46 -85 49 -85 3 0 258 253 568 563 l563 563 -19
50 c-51 128 -161 276 -273 366 -59 47 -255 158 -279 158 -3 0 -258 -253 -568
-563z"/>
<path d="M1562 2179 c-238 -35 -442 -213 -513 -449 -29 -95 -31 -244 -5 -340
60 -222 254 -409 472 -455 96 -20 207 -19 296 4 75 20 171 62 183 80 3 6 -71
125 -165 265 l-170 256 0 325 c0 303 -1 325 -17 324 -10 -1 -46 -6 -81 -10z"/>
<path d="M2887 1277 c-19 -100 -34 -183 -32 -185 3 -4 314 54 348 64 22 7 18
30 -15 101 -40 85 -150 175 -239 196 l-27 7 -35 -183z"/>
</g>
</svg>
